# xmcd
#
# Track frame offsets: 
#        182
#        25517
#        49142
#        82147
#        94540
#        108937
#        132340
#        146882
#        162922
#        194845
#        224555
#        242065
#        262480
#        278457
#        292532
#        302437
#        319972
#
# Disc length: 4496 seconds
#
# Revision: 1
# Processed by: cddbd v1.5.2PL0 Copyright (c) Steve Scherf et al.
# Submitted via: ExactAudioCopy v0.90b4
#
DISCID=fc118e11
DTITLE=LaNewOrleans! - Compilation Jazz
DYEAR=1994
DGENRE=Jazz
TTITLE0=Sydney Bechet - Souvenirs de la Nouvele Orleans
TTITLE1=Louis Armstrong - Black O'Town Blues
TTITLE2=Teddy Buckner - Royal garden Blues
TTITLE3=Claude Luter - Tiger Rag
TTITLE4=Sydney Bechet - 12th Street Rag
TTITLE5=Georges Lewis - When The Saint's Go Marchin' In
TTITLE6=Mezz Mezzrow - Blues des années 20
TTITLE7=Louis Armstrong - Oh! Didn't The Ramble
TTITLE8=Teddy Buckner - Basin Street Blues
TTITLE9=New Orleans Heritage Hall Jazz Band - Bogalusa Street
TTITLE10=Sydney Bechet - Muskrat Ramble
TTITLE11=Louis Armstrong - Way Down Younder In New Orleans
TTITLE12=Kid Ory - High Society
TTITLE13=Sydney Bechet - Embraceable You
TTITLE14=All Star Marching Band - Down By The Riverside
TTITLE15=Singleton Palmer - Sweet Georgia Brown
TTITLE16=Sydney Bechet - Nuages
EXTD=YEAR: 1994
EXTT0=
EXTT1=
EXTT2=
EXTT3=
EXTT4=
EXTT5=
EXTT6=
EXTT7=
EXTT8=
EXTT9=
EXTT10=
EXTT11=
EXTT12=
EXTT13=
EXTT14=
EXTT15=
EXTT16=
PLAYORDER=
